<?xml version="1.0" encoding="UTF-8"?>
<svg version="1.1" xmlns="http://www.w3.org/2000/svg" width="399" height="118">
<path d="M0 0 C131.67 0 263.34 0 399 0 C399 38.94 399 77.88 399 118 C267.33 118 135.66 118 0 118 C0 79.06 0 40.12 0 0 Z " fill="#FDFDFD" transform="translate(0,0)"/>
<path d="M0 0 C9.9 0 19.8 0 30 0 C33.62006064 9.16096977 37.16372695 18.31315299 40.375 27.625 C43.73770509 37.37365324 47.34097772 47.02509714 50.984375 56.671875 C51.32662109 57.58001953 51.66886719 58.48816406 52.02148438 59.42382812 C52.64939173 61.0769415 53.28541757 62.72700701 53.93164062 64.37304688 C55.10826822 67.39590512 56 69.72479713 56 73 C46.1 73 36.2 73 26 73 C20.48029644 58.58040744 15.0425114 44.13392223 9.70605469 29.64550781 C8.88984181 27.43214997 8.07141859 25.21960618 7.25097656 23.0078125 C6.04804959 19.76472895 4.85140984 16.51939016 3.65625 13.2734375 C3.28761841 12.28298431 2.91898682 11.29253113 2.53918457 10.27206421 C2.20463257 9.35905548 1.87008057 8.44604675 1.52539062 7.50537109 C1.08193298 6.30465469 1.08193298 6.30465469 0.6295166 5.0796814 C0 3 0 3 0 0 Z " fill="#070404" transform="translate(33,27)"/>
<path d="M0 0 C30.64841499 0 30.64841499 0 39 7 C43.09116126 11.30648554 44.82742353 14.89456712 45.3125 20.8125 C45.13756234 26.60731003 43.40794704 31.17795089 39.875 35.75 C30.937859 42.74428426 21.56865384 43.15357622 10.625 43.0625 C7.11875 43.041875 3.6125 43.02125 0 43 C0 28.81 0 14.62 0 0 Z " fill="#0A0606" transform="translate(274,42)"/>
<path d="M0 0 C12 0 12 0 15.9453125 3.17578125 C17.04197983 4.52562657 18.10206109 5.90595899 19.125 7.3125 C19.67414063 8.00279297 20.22328125 8.69308594 20.7890625 9.40429688 C22.99081234 12.19695751 25.02686308 15.04029462 27 18 C27.33 12.39 27.66 6.78 28 1 C32.62 1 37.24 1 42 1 C42 14.86 42 28.72 42 43 C30 43 30 43 26.5625 40.33203125 C25.67038024 39.18744945 24.81569851 38.0127421 24 36.8125 C23.56300781 36.23435547 23.12601563 35.65621094 22.67578125 35.06054688 C21.85772058 33.97348427 21.05449741 32.87493147 20.2734375 31.76098633 C18.59863557 29.44496902 16.78545863 27.23182329 15 25 C14.67 30.94 14.34 36.88 14 43 C9.38 43 4.76 43 0 43 C0 28.81 0 14.62 0 0 Z " fill="#0B0707" transform="translate(226,42)"/>
<path d="M0 0 C11.22 0 22.44 0 34 0 C34 3.3 34 6.6 34 10 C27.4 10 20.8 10 14 10 C14 11.65 14 13.3 14 15 C19.94 15 25.88 15 32 15 C32 18.3 32 21.6 32 25 C26.06 25 20.12 25 14 25 C14 26.98 14 28.96 14 31 C20.93 31 27.86 31 35 31 C35 34.63 35 38.26 35 42 C23.45 42 11.9 42 0 42 C0 28.14 0 14.28 0 0 Z " fill="#080404" transform="translate(185,43)"/>
<path d="M0 0 C9.9 0 19.8 0 30 0 C27.97689236 7.41806136 25.85830994 14.5207028 23.20703125 21.69921875 C22.85613937 22.6602803 22.5052475 23.62134186 22.14372253 24.61152649 C21.03750513 27.63840432 19.92512282 30.66297162 18.8125 33.6875 C18.05492711 35.75701089 17.29776198 37.8266711 16.54101562 39.89648438 C14.69871413 44.93272292 12.85136509 49.96708674 11 55 C10.01 55 9.02 55 8 55 C7.09222334 52.73055834 6.18456375 50.46107053 5.27734375 48.19140625 C4.09551294 45.2386363 2.90995806 42.28739127 1.72363281 39.33642578 C0.94299764 37.38871679 0.16834491 35.43870888 -0.60546875 33.48828125 C-1.40091946 31.49854041 -2.20818329 29.51320709 -3.05078125 27.54296875 C-7.46787084 16.9293933 -4.01016967 11.22847509 0 0 Z " fill="#090909" transform="translate(85,27)"/>
<path d="M0 0 C4.95 0 9.9 0 15 0 C24 17.33333333 24 17.33333333 24 23 C24.66 23 25.32 23 26 23 C26.13921875 22.03320312 26.13921875 22.03320312 26.28125 21.046875 C27.25474982 16.92008229 28.86142069 13.1523194 30.5 9.25 C30.82097656 8.47011719 31.14195312 7.69023438 31.47265625 6.88671875 C33.86221168 1.13778832 33.86221168 1.13778832 35 0 C38.59499796 -0.11109388 42.17884273 -0.06145187 45.77514648 -0.02905273 C46.83934814 -0.01946533 47.9035498 -0.00987793 49 0 C45.61860108 8.96829956 42.02071971 17.81310246 38.25 26.625 C37.27502744 28.90842138 36.30102115 31.19225565 35.328125 33.4765625 C34.9043457 34.46736816 34.48056641 35.45817383 34.04394531 36.47900391 C33.29314273 38.29209732 32.62056525 40.13830426 32 42 C27.05 42 22.1 42 17 42 C14.73593476 36.66303021 12.4757011 31.32446038 10.21899414 25.984375 C9.45083889 24.16817514 8.6816407 22.35241601 7.91137695 20.53710938 C6.80405215 17.92693563 5.70049446 15.315197 4.59765625 12.703125 C4.25283707 11.89256653 3.90801788 11.08200806 3.55274963 10.24688721 C3.23249313 9.48640076 2.91223663 8.72591431 2.58227539 7.94238281 C2.30025772 7.27619934 2.01824005 6.61001587 1.72767639 5.92364502 C1 4 1 4 0 0 Z " fill="#090505" transform="translate(131,43)"/>
<path d="M0 0 C12.54 0 25.08 0 38 0 C38 3.3 38 6.6 38 10 C34.04 10 30.08 10 26 10 C26 20.56 26 31.12 26 42 C21.38 42 16.76 42 12 42 C12 31.77 12 21.54 12 11 C8.04 11 4.08 11 0 11 C0 7.37 0 3.74 0 0 Z " fill="#080404" transform="translate(343,43)"/>
<path d="M0 0 C4.62 0 9.24 0 14 0 C14 14.19 14 28.38 14 43 C9.38 43 4.76 43 0 43 C0 28.81 0 14.62 0 0 Z " fill="#050101" transform="translate(324,42)"/>
<path d="M0 0 C1.99016104 3.43832077 2.60953377 6.73496603 3.3125 10.625 C4.59610952 16.86060564 6.25526429 22.75965338 10 28 C10.99 28.33 11.98 28.66 13 29 C13 31.64 13 34.28 13 37 C13.66 37 14.32 37 15 37 C16.40843182 41.54577694 15.4862514 44.04271032 13.5625 48.3125 C13.08941406 49.38113281 12.61632812 50.44976562 12.12890625 51.55078125 C11.75636719 52.35902344 11.38382813 53.16726562 11 54 C8.66938751 51.89131175 7.43228345 50.12178751 6.31640625 47.19140625 C5.88739014 46.0785022 5.88739014 46.0785022 5.44970703 44.94311523 C5.15692871 44.15751221 4.86415039 43.37190918 4.5625 42.5625 C4.25683105 41.76078369 3.95116211 40.95906738 3.63623047 40.13305664 C1.50728924 34.5004445 -0.46155209 28.83273272 -2.2734375 23.08984375 C-2.81665025 21.03811926 -2.81665025 21.03811926 -4 20 C-4.68931568 12.69325378 -2.53884753 6.80048445 0 0 Z " fill="#3F3F3F" transform="translate(84,29)"/>
<path d="M0 0 C10.0364136 -0.60460323 10.0364136 -0.60460323 14.1875 2 C16.51674697 5.85530534 16.82710869 8.60654091 16 13 C14.36312815 16.58552881 13.31027417 17.79315055 10 20 C6.7 20 3.4 20 0 20 C0 13.4 0 6.8 0 0 Z " fill="#F3F3F3" transform="translate(288,54)"/>
<path d="M0 0 C0.33 0 0.66 0 1 0 C1.391875 1.216875 1.78375 2.43375 2.1875 3.6875 C3.51942279 7.68958081 4.98190185 11.62736944 6.5 15.5625 C6.92925781 16.67625 7.35851562 17.79 7.80078125 18.9375 C8.48880451 20.69453661 9.18781141 22.4475506 9.91796875 24.1875 C12.60267278 30.72891085 14 37.92784419 14 45 C11.66938751 42.89131175 10.43228345 41.12178751 9.31640625 38.19140625 C8.88739014 37.0785022 8.88739014 37.0785022 8.44970703 35.94311523 C8.15692871 35.15751221 7.86415039 34.37190918 7.5625 33.5625 C7.25683105 32.76078369 6.95116211 31.95906738 6.63623047 31.13305664 C4.50728924 25.5004445 2.53844791 19.83273272 0.7265625 14.08984375 C0.18334975 12.03811926 0.18334975 12.03811926 -1 11 C-1.23529412 3.70588235 -1.23529412 3.70588235 0 0 Z " fill="#919191" transform="translate(81,38)"/>
<path d="M0 0 C0.33 0 0.66 0 1 0 C1.0825 0.94875 1.165 1.8975 1.25 2.875 C1.82395014 6.79957797 3.15519902 10.13658887 4.69140625 13.77734375 C5.75723149 16.40213725 6.75185074 19.02826886 7.71484375 21.69140625 C8.01890137 22.53219727 8.32295898 23.37298828 8.63623047 24.23925781 C9.2443675 25.92870545 9.84897677 27.61942795 10.44970703 29.31152344 C11.68621314 32.72915665 12.85256714 35.76058469 14.765625 38.8671875 C16 41 16 41 15.1875 44.3125 C14.795625 45.199375 14.40375 46.08625 14 47 C11.87953208 43.46588679 11.46800711 40.05606165 11 36 C10.34 36 9.68 36 9 36 C8.75765625 35.23816406 8.5153125 34.47632813 8.265625 33.69140625 C6.64252775 28.69101817 4.99977824 23.81917399 2.75 19.0625 C1.28017847 15.9046803 0.54245805 13.54595015 1 10 C0.34 10 -0.32 10 -1 10 C-1.125 3.375 -1.125 3.375 0 0 Z " fill="#DADADA" transform="translate(79,42)"/>
<path d="M0 0 C0.66 1.32 1.32 2.64 2 4 C2.66 4 3.32 4 4 4 C4.45375 4.969375 4.9075 5.93875 5.375 6.9375 C6.65786221 10.07079582 6.65786221 10.07079582 9 11 C8.39009109 14.55780196 7.4216319 17.6828589 6 21 C5.34 20.67 4.68 20.34 4 20 C3.4375 17.41796875 3.4375 17.41796875 3 14.1875 C2.47036574 10.30509173 1.74662444 7.47141608 0 4 C0 2.68 0 1.36 0 0 Z " fill="#585858" transform="translate(90,60)"/>
<path d="M0 0 C0.78375 0.804375 1.5675 1.60875 2.375 2.4375 C4.71982856 4.98690417 4.71982856 4.98690417 7 6 C7 8.64 7 11.28 7 14 C7.66 14 8.32 14 9 14 C9.33 15.65 9.66 17.3 10 19 C8.68 19 7.36 19 6 19 C5.34 16.69 4.68 14.38 4 12 C3.34 12 2.68 12 2 12 C-0.60018816 8.09971775 -0.15085514 4.52565431 0 0 Z " fill="#3C3C3C" transform="translate(90,52)"/>
<path d="M0 0 C0.33 0 0.66 0 1 0 C2.09845718 4.32059823 3.17812739 8.61667943 4 13 C4.99 13.33 5.98 13.66 7 14 C8.28317892 17.84953676 8.06643637 20.94738135 8 25 C3.08982077 17.63473115 -1.07581362 8.96511348 0 0 Z " fill="#606060" transform="translate(82,35)"/>
<path d="M0 0 C0.99 0.495 0.99 0.495 2 1 C2 1.99 2 2.98 2 4 C2.66 4 3.32 4 4 4 C5.76054874 8.64144669 7.46527032 13.27775484 9 18 C8.01 18 7.02 18 6 18 C5.73445313 17.32453125 5.46890625 16.6490625 5.1953125 15.953125 C4.84210938 15.06109375 4.48890625 14.1690625 4.125 13.25 C3.77695313 12.36828125 3.42890625 11.4865625 3.0703125 10.578125 C2.07142668 8.04417218 2.07142668 8.04417218 0.8671875 5.921875 C0 4 0 4 0 0 Z " fill="#A6A6A6" transform="translate(87,64)"/>
<path d="M0 0 C2.4525805 2.4525805 2.98703035 4.46225248 4.0625 7.75 C4.40410156 8.77609375 4.74570313 9.8021875 5.09765625 10.859375 C5.97148515 13.90075349 6.5456569 16.87112175 7 20 C6.34 18.68 5.68 17.36 5 16 C4.34 16 3.68 16 3 16 C0.54970669 10.28264895 -0.33266291 6.20970773 0 0 Z " fill="#848484" transform="translate(86,52)"/>
<path d="M0 0 C0.33 0 0.66 0 1 0 C1.12375 1.0725 1.2475 2.145 1.375 3.25 C1.77761368 6.84092264 1.77761368 6.84092264 3.125 9.1875 C4 11 4 11 3.625 13.25 C3.41875 13.8275 3.2125 14.405 3 15 C2.71125 14.360625 2.4225 13.72125 2.125 13.0625 C1.17176549 10.84793921 1.17176549 10.84793921 -1 10 C-1.125 3.375 -1.125 3.375 0 0 Z " fill="#D3D3D3" transform="translate(79,42)"/>
<path d="M0 0 C2.39073445 3.82517513 2.55966552 7.59665524 3 12 C2.34 11.67 1.68 11.34 1 11 C1 10.01 1 9.02 1 8 C0.34 8 -0.32 8 -1 8 C-0.67 5.36 -0.34 2.72 0 0 Z " fill="#363636" transform="translate(84,29)"/>
<path d="M0 0 C0.66 1.32 1.32 2.64 2 4 C2.66 4 3.32 4 4 4 C4.66 5.98 5.32 7.96 6 10 C5.01 10 4.02 10 3 10 C0.96564469 6.27034861 0 4.33094958 0 0 Z " fill="#B0B0B0" transform="translate(90,72)"/>
<path d="M0 0 C0.99 0.495 0.99 0.495 2 1 C3.28317892 4.84953676 3.06643637 7.94738135 3 12 C0.97649676 8.96474514 0.67875982 7.80573798 0.375 4.3125 C0.30023438 3.50425781 0.22546875 2.69601563 0.1484375 1.86328125 C0.09945312 1.24839844 0.05046875 0.63351563 0 0 Z " fill="#535353" transform="translate(87,48)"/>
<path d="M0 0 C1.65 1.32 3.3 2.64 5 4 C4.34 5.65 3.68 7.3 3 9 C2.34 8.67 1.68 8.34 1 8 C0.40644386 5.35139573 0.25790731 2.70802678 0 0 Z " fill="#7D7D7D" transform="translate(93,72)"/>
<path d="M0 0 C0.33 0 0.66 0 1 0 C1 2.64 1 5.28 1 8 C1.66 8 2.32 8 3 8 C3.33 9.65 3.66 11.3 4 13 C3.01 12.67 2.02 12.34 1 12 C0.03929566 9.11788698 -0.10581883 7.30149956 -0.0625 4.3125 C-0.05347656 3.50425781 -0.04445313 2.69601563 -0.03515625 1.86328125 C-0.02355469 1.24839844 -0.01195313 0.63351563 0 0 Z " fill="#242424" transform="translate(96,58)"/>
<path d="M0 0 C2.0343459 1.41519715 2.90410393 2.54982123 3.421875 4.98046875 C3.66273952 6.98176954 3.83532741 8.9909944 4 11 C1.73030256 8.73030256 1.00868171 7.02604513 0 4 C0 2.68 0 1.36 0 0 Z " fill="#B1B1B1" transform="translate(83,53)"/>
</svg>
